PathFileType	4	(X/Y/Z)	 s11c0201.trc
DataRate	CameraRate	NumFrames	NumMarkers	Units	OrigDataRate	OrigDataStartFrame	OrigNumFrames
200	200	7	48	mm	200	1501	2000
Frame#	Time	racr			lacr			c7			jug			rlel			rdr			llel			ldr			s2			lic			ric			lasi			rasi			rpsi			lpsi			rgt			lgt			rth1			rth2			rth3			rth4			rlfc			rmfc			rsh1			rsh2			rsh3			rsh4			rlmal			rcal			rtoe			rmt5			lth1			lth2			lth4			lth3			llfc			lmfc			llmal			lcal			lmt5			lsh1			lsh2			lsh3			lsh4			ltoe			SBIKE			LBIKE			RBIKE			
		X1	Y1	Z1	X2	Y2	Z2	X3	Y3	Z3	X4	Y4	Z4	X5	Y5	Z5	X6	Y6	Z6	X7	Y7	Z7	X8	Y8	Z8	X9	Y9	Z9	X10	Y10	Z10	X11	Y11	Z11	X12	Y12	Z12	X13	Y13	Z13	X14	Y14	Z14	X15	Y15	Z15	X16	Y16	Z16	X17	Y17	Z17	X18	Y18	Z18	X19	Y19	Z19	X20	Y20	Z20	X21	Y21	Z21	X22	Y22	Z22	X23	Y23	Z23	X24	Y24	Z24	X25	Y25	Z25	X26	Y26	Z26	X27	Y27	Z27	X28	Y28	Z28	X29	Y29	Z29	X30	Y30	Z30	X31	Y31	Z31	X32	Y32	Z32	X33	Y33	Z33	X34	Y34	Z34	X35	Y35	Z35	X36	Y36	Z36	X37	Y37	Z37	X38	Y38	Z38	X39	Y39	Z39	X40	Y40	Z40	X41	Y41	Z41	X42	Y42	Z42	X43	Y43	Z43	X44	Y44	Z44	X45	Y45	Z45	X46	Y46	Z46	X47	Y47	Z47	X48	Y48	Z48	
1501	7.5050	496.591960	1352.333884	-66.181410	523.997062	1334.609507	-372.919106	467.127388	1436.616444	-227.140100	465.700198	1252.839735	-225.517009	554.317324	1130.616160	81.769595	758.860592	970.485774	-24.567145	507.705498	1082.463116	-554.123925	775.916734	961.536072	-447.091693	-102.075702	1201.292415	-265.757202	127.344657	1216.376042	-456.812738	92.826096	1208.829706	-43.852953	150.045448	1141.603782	-421.055969	128.853966	1142.721734	-79.179687	-59.523146	1271.303761	-213.638442	-59.926669	1266.003825	-305.327994	59.364152	1051.931824	-46.763958	52.230687	1087.327870	-468.946163	NaN	NaN	NaN	NaN	NaN	NaN	270.320430	817.963312	-79.108344	259.852734	919.104090	-67.822985	336.782274	736.539220	-98.161994	326.999478	712.910351	-221.347438	303.649799	581.340759	-73.326277	311.919634	494.717343	-86.663513	276.848387	414.151593	-84.197008	334.179643	492.585610	-119.732651	246.938770	275.013402	-90.636299	185.417142	246.638092	-136.932914	472.308271	255.277333	-130.488806	407.263123	217.163716	-61.276587	187.035140	1022.947884	-479.707822	271.668748	1008.641051	-475.792760	287.833646	1040.353477	-465.052584	340.455596	950.237921	-473.458736	448.671150	876.725186	-450.378107	457.575788	870.749652	-319.780374	142.527260	591.474702	-413.187798	81.052975	606.026003	-374.970083	168.538187	418.527621	-442.968100	361.647986	790.405538	-463.293475	319.923803	718.072354	-443.034615	244.854948	672.223963	-435.870474	344.471180	699.420450	-419.686632	243.183438	355.072959	-374.639711	-204.690907	957.413079	-262.775962	1.384037	82.225593	-461.057788	-15.258933	80.904443	-62.536091	
1502	7.5100	498.475496	1353.028518	-68.088033	522.940812	1336.176858	-376.068698	467.853583	1437.775316	-229.866491	465.788401	1254.020732	-228.121128	555.412372	1131.035799	81.408303	759.272144	970.353289	-24.694964	506.427575	1081.874812	-554.764685	776.178352	961.595781	-447.653772	-103.963126	1203.073064	-260.134728	126.878097	1218.630394	-456.663383	93.451306	1208.599442	-42.493957	148.908812	1145.097198	-419.188904	130.533552	1142.608956	-76.624777	-58.721694	1271.947925	-211.823107	-59.543022	1267.072201	-303.051671	58.033405	1051.073996	-46.614192	52.248254	1090.965733	-468.136415	NaN	NaN	NaN	NaN	NaN	NaN	263.256775	811.802697	-78.903560	255.348437	913.049531	-67.429440	328.004679	729.027418	-98.168825	316.057432	704.553720	-221.568487	296.121312	574.164987	-73.720474	304.368769	487.584766	-87.502169	269.674036	406.928135	-84.764706	327.088590	485.635104	-121.151683	239.420090	267.453258	-91.236075	178.185499	239.124576	-137.660828	464.889985	247.178888	-130.582283	399.852209	209.075510	-61.628152	188.026466	1029.417044	-479.393999	272.882780	1016.695957	-475.528659	288.392269	1048.822945	-464.579920	342.856407	959.756761	-473.656613	453.950841	888.725241	-451.150035	463.134225	882.915873	-319.408552	150.971104	599.919317	-413.315541	89.647271	614.541158	-375.003209	175.789749	426.206407	-441.969282	368.443678	801.084994	-463.787703	327.355733	728.538638	-443.399721	252.703945	682.006873	-436.002796	352.097521	710.041261	-420.105513	250.382126	362.665045	-374.375033	-204.674332	957.461935	-262.817468	1.396102	82.278308	-461.120997	-15.262378	80.956337	-62.580504	
1503	7.5150	500.358397	1353.460768	-69.788837	521.886812	1337.697717	-379.323701	468.615011	1438.489662	-232.217123	466.038521	1254.758350	-230.281123	556.627670	1131.419398	81.197407	759.700314	970.197481	-24.927386	505.102421	1081.301127	-555.061544	776.425042	961.656680	-447.978018	-101.402685	1202.951690	-260.122358	126.603196	1221.191479	-456.995559	94.392396	1208.665675	-41.378795	147.822188	1148.863487	-417.299938	131.824460	1142.854559	-74.685877	-57.757322	1272.218715	-210.312054	-59.095219	1268.259388	-300.814659	56.752460	1050.473954	-46.401041	52.190950	1094.914478	-467.371541	NaN	NaN	NaN	NaN	NaN	NaN	256.351632	805.966218	-78.300400	250.703948	907.535537	-66.752308	319.157160	722.144753	-97.910716	305.265904	696.725785	-221.476752	287.667502	567.671290	-73.805818	296.432442	481.154758	-87.782327	262.069718	400.346817	-85.126651	318.962087	479.572697	-121.574991	231.673926	260.363005	-91.872836	170.531653	232.386557	-138.351789	457.239567	239.083722	-130.811386	391.871521	201.281194	-61.979481	188.743616	1035.828400	-479.214211	273.863926	1024.828727	-475.322416	288.757776	1057.088043	-464.043448	344.755741	969.302977	-473.955337	459.008823	900.304713	-451.470385	468.478052	894.455417	-319.554661	159.157714	607.933991	-413.402449	98.039037	622.459627	-374.923612	183.742462	433.805468	-441.450957	374.867848	811.953198	-464.348044	334.628182	738.931863	-443.832388	260.417465	691.719268	-436.185208	359.639702	720.717351	-420.701957	258.105564	370.160571	-374.127863	-204.656396	957.500162	-262.793720	1.383915	82.331266	-461.107810	-15.261028	80.976856	-62.573557	
1504	7.5200	502.170305	1353.672082	-71.399146	520.887014	1339.157950	-382.647819	469.486978	1439.081167	-234.672433	466.200286	1255.378507	-232.516356	557.805841	1131.810363	81.028863	760.169536	970.009610	-25.213131	504.124049	1080.894808	-555.685658	776.676470	961.702020	-448.036097	-100.483854	1203.677858	-258.048054	126.372521	1223.987382	-457.521384	95.390082	1208.807112	-40.360588	146.849288	1152.926642	-415.869209	132.837685	1143.750831	-73.244333	-56.169470	1273.421984	-207.491487	-58.317169	1269.508960	-299.181936	55.550996	1049.921589	-46.171243	52.079227	1099.025856	-466.771458	NaN	NaN	NaN	NaN	NaN	NaN	249.648257	800.724036	-77.375744	246.245443	902.447431	-65.936260	310.558625	715.818491	-97.448185	296.600210	689.813539	-219.228779	279.154722	561.642227	-73.501871	288.073278	475.040666	-87.812727	253.951290	394.309823	-85.400014	310.648879	473.689403	-121.597217	223.494366	254.148655	-92.373742	162.628611	226.475991	-139.107129	449.460340	231.419862	-131.103780	383.578196	193.987676	-62.227294	189.347533	1042.199472	-479.097815	274.635252	1032.738516	-475.153381	288.893531	1065.288183	-463.541838	346.552517	978.720641	-474.291133	463.733055	912.146319	-452.322981	473.704206	904.866220	-320.522821	167.201985	615.476277	-413.457373	106.073053	629.801784	-374.904317	192.104824	441.138050	-441.109650	381.158282	822.854814	-464.853809	341.720919	749.378285	-444.325943	268.008533	701.351485	-436.361893	366.912688	731.326769	-421.458889	266.596684	377.554551	-373.863401	-204.625366	957.523258	-262.779735	1.390367	82.340496	-461.097010	-15.251346	81.012113	-62.590671	
1505	7.5250	503.939143	1353.804276	-73.048292	519.884291	1340.561083	-385.984030	470.341428	1439.451339	-236.981054	466.435436	1255.778744	-234.574571	559.100568	1132.148626	81.096352	760.776099	969.857560	-25.464258	503.328655	1080.651895	-556.245648	776.911140	961.793461	-447.867216	-99.997651	1205.178922	-256.130750	125.732948	1226.411135	-457.553469	96.521566	1209.428714	-39.179415	145.729234	1156.675366	-413.956805	133.892644	1144.201172	-71.734634	-54.655203	1274.677088	-204.833973	-57.637336	1270.889102	-297.307776	54.432714	1049.280346	-45.960217	51.944743	1103.215940	-466.450425	NaN	NaN	NaN	NaN	NaN	NaN	243.140939	795.975109	-76.170775	241.836936	897.785962	-64.918002	302.393938	710.144508	-96.738131	286.938847	684.451633	-218.613351	270.566633	556.249657	-72.973113	279.534817	469.911444	-87.921534	245.238221	388.852918	-85.409599	302.122291	468.437972	-121.070500	214.905492	248.757995	-92.987596	154.282271	221.390764	-139.662765	441.194556	224.114549	-131.225560	374.945803	187.255532	-62.540142	189.818241	1048.449352	-479.044917	275.212095	1040.664659	-474.984455	288.824982	1073.370446	-463.038361	348.125851	987.911491	-474.776853	468.009906	923.629490	-452.692607	478.602924	916.030757	-320.522575	175.004156	622.649734	-413.488980	113.942305	636.328562	-374.799534	200.880494	448.125122	-440.689858	387.233282	833.649829	-465.289771	348.570701	759.681555	-444.852567	275.434956	710.908399	-436.602043	374.103468	741.884663	-422.123001	275.806242	385.307273	-373.820808	-204.605586	957.568372	-262.760602	1.419491	82.339116	-461.143032	-15.241426	81.020131	-62.596135	
1506	7.5300	505.715143	1353.743664	-74.566743	518.847581	1341.903388	-389.376865	471.279629	1439.923845	-239.379018	466.429247	1256.290664	-236.816842	560.606981	1132.697849	81.120644	761.387535	969.733851	-25.803924	502.716066	1080.446048	-556.691077	777.128873	961.934312	-447.523540	-99.363754	1206.318000	-254.265194	125.295892	1229.140544	-457.978354	98.022534	1209.910275	-38.342963	144.641380	1160.357037	-412.149823	134.974319	1144.644726	-70.690786	-50.547267	1274.557942	-204.203526	-57.506490	1272.426285	-295.078812	53.344181	1048.653264	-45.645847	51.682293	1107.535564	-466.130804	NaN	NaN	NaN	NaN	NaN	NaN	236.966688	791.679774	-74.567432	237.363178	893.399112	-63.948115	294.719948	705.148898	-95.780752	276.876338	680.176657	-217.511969	262.161050	551.374740	-72.114799	270.760997	464.961066	-86.974706	236.160939	384.269437	-85.007962	292.727941	463.391356	-120.082479	206.189823	244.057208	-93.254332	145.876278	217.232576	-139.980270	432.773973	217.140341	-131.471081	366.196899	180.773710	-62.721410	190.156662	1054.613441	-478.967092	275.677863	1048.347967	-474.869288	288.668198	1081.201623	-462.512556	349.520451	996.983670	-475.318844	471.951157	934.571012	-453.369568	483.191184	926.896178	-320.546796	182.893509	629.604080	-413.416540	121.294228	642.244800	-374.680431	209.986866	454.621874	-440.287465	392.871801	844.411278	-465.809783	355.071998	769.996920	-445.611378	282.598504	720.199443	-436.803732	381.050526	752.340655	-422.964029	285.381924	392.400847	-373.421932	-204.560378	957.611353	-262.714513	1.389656	82.376238	-461.102137	-15.243578	81.040039	-62.574417	
1507	7.5350	507.451123	1353.547202	-76.065817	517.757160	1343.140076	-392.610458	472.162266	1440.260958	-241.695658	466.386952	1256.671262	-238.996470	561.965275	1133.049431	81.435479	761.931667	969.483299	-26.329889	502.368695	1080.423648	-557.075573	777.335993	962.143785	-447.050522	-98.860371	1207.640944	-252.282273	124.382332	1231.572246	-457.725853	99.895420	1210.474042	-37.604360	143.528166	1163.796628	-410.285201	135.996430	1145.090920	-69.927543	-49.711979	1275.408457	-202.424492	-57.238617	1273.822378	-292.714681	52.339080	1048.085578	-45.145084	51.379042	1111.833610	-466.008480	NaN	NaN	NaN	NaN	NaN	NaN	230.924035	787.848861	-72.790385	233.361451	889.603924	-62.448308	287.584646	700.823174	-94.679852	269.741783	675.990949	-217.312930	253.881806	547.268656	-71.199253	261.951330	460.871267	-85.977126	226.820629	380.437242	-84.443032	284.257729	459.234795	-118.830681	197.569052	240.087345	-93.310706	137.190278	213.736443	-140.172491	424.067740	211.007806	-131.640125	357.074878	175.065452	-62.984501	190.446577	1060.677050	-478.901553	276.022908	1055.773226	-474.729963	288.457219	1088.803699	-462.064122	350.955951	1005.775871	-475.810030	475.606745	945.812172	-453.585302	487.415843	937.481675	-320.470203	189.847280	635.849489	-413.344790	128.430459	647.387152	-374.589624	219.232174	460.783871	-439.884044	398.152049	855.045035	-466.212366	361.342854	779.891632	-446.215377	289.421383	729.358383	-437.185236	387.635994	762.560277	-423.831568	295.866793	399.778528	-373.392516	-204.537259	957.687212	-262.588740	1.418227	82.435580	-461.116002	-15.247309	81.048127	-62.582319	
